HIERARCHY
ROOT Hips
{
    OFFSET 0.000000 0.000000 0.000000
    CHANNELS 6 Xposition Yposition Zposition Zrotation Xrotation Yrotation
    JOINT Spine
    {
        OFFSET -0.000000 14.517291 0.000000
        CHANNELS 3 Zrotation Xrotation Yrotation
        JOINT Spine1
        {
            OFFSET -0.000000 37.558300 0.000000
            CHANNELS 3 Zrotation Xrotation Yrotation
            JOINT Neck
            {
                OFFSET -0.000000 37.404057 3.400369
                CHANNELS 3 Zrotation Xrotation Yrotation
                JOINT Head
                {
                    OFFSET -0.000000 24.785618 -3.540803
                    CHANNELS 3 Zrotation Xrotation Yrotation
                    End Site
                    {
                        OFFSET -0.000000 35.408028 0.000000
                    }
                }
            }
            JOINT LeftShoulder
            {
                OFFSET 6.992933 33.973492 -0.192664
                CHANNELS 3 Zrotation Xrotation Yrotation
                JOINT LeftArm
                {
                    OFFSET 21.527611 0.000000 0.000000
                    CHANNELS 3 Zrotation Xrotation Yrotation
                    JOINT LeftForeArm
                    {
                        OFFSET 56.353916 0.000000 0.000000
                        CHANNELS 3 Zrotation Xrotation Yrotation
                        JOINT LeftHand
                        {
                            OFFSET 47.774071 0.000000 0.000000
                            CHANNELS 3 Zrotation Xrotation Yrotation
                            End Site
                            {
                                OFFSET 26.556021 0.000000 0.000000
                            }
                        }
                    }
                }
            }
            JOINT RightShoulder
            {
                OFFSET -7.065357 33.973492 -0.192664
                CHANNELS 3 Zrotation Xrotation Yrotation
                JOINT RightArm
                {
                    OFFSET -21.527611 0.000000 0.000000
                    CHANNELS 3 Zrotation Xrotation Yrotation
                    JOINT RightForeArm
                    {
                        OFFSET -56.353916 0.000000 0.000000
                        CHANNELS 3 Zrotation Xrotation Yrotation
                        JOINT RightHand
                        {
                            OFFSET -47.774071 0.000000 0.000000
                            CHANNELS 3 Zrotation Xrotation Yrotation
                            End Site
                            {
                                OFFSET -26.556021 0.000000 0.000000
                            }
                        }
                    }
                }
            }
        }
    }
    JOINT LeftUpLeg
    {
        OFFSET 17.704014 0.000000 0.000000
        CHANNELS 3 Zrotation Xrotation Yrotation
        JOINT LeftLeg
        {
            OFFSET -0.000000 -81.181816 0.000000
            CHANNELS 3 Zrotation Xrotation Yrotation
            JOINT LeftFoot
            {
                OFFSET -0.000000 -62.821102 0.000000
                CHANNELS 3 Zrotation Xrotation Yrotation
                JOINT LeftToeBase
                {
                    OFFSET -0.000000 -11.507608 26.556021
                    CHANNELS 3 Zrotation Xrotation Yrotation
                    End Site
                    {
                        OFFSET -0.000000 0.000000 7.081605
                    }
                }
            }
        }
    }
    JOINT RightUpLeg
    {
        OFFSET -17.704014 0.000000 0.000000
        CHANNELS 3 Zrotation Xrotation Yrotation
        JOINT RightLeg
        {
            OFFSET -0.000000 -81.181816 0.000000
            CHANNELS 3 Zrotation Xrotation Yrotation
            JOINT RightFoot
            {
                OFFSET -0.000000 -62.821102 0.000000
                CHANNELS 3 Zrotation Xrotation Yrotation
                JOINT RightToeBase
                {
                    OFFSET -0.000000 -11.507608 26.556021
                    CHANNELS 3 Zrotation Xrotation Yrotation
                    End Site
                    {
                        OFFSET -0.000000 0.000000 7.081605
                    }
                }
            }
        }
    }
}
MOTION
Frames:    4
Frame Time:    0.008333
-16.240995    153.449188    -90.868340    3.454164    -5.821780    92.355621    -3.698113    1.543063    4.272912    -0.067051    -0.701259    1.406564    -2.348179    8.188072    -21.537172    17.306458    -1.530333    -19.678097    4.848883    6.656728    -13.220911    -32.433273    23.652430    -54.495121    -6.926093    -16.989649    -127.433411    -6.898676    -29.325760    -10.909927    0.156220    11.587602    -10.598863    49.790775    17.940359    6.786753    -14.492369    -6.283840    16.875620    -21.287392    -8.297852    22.021261    15.204315    -20.609264    -32.557980    -12.509688    39.581696    -33.348637    -1.239775    -25.028736    43.908566    0.000000    0.000000    0.000000    -21.672798    0.754303    -38.945755    6.624609    36.052197    -25.474405    19.389301    0.186320    -23.917843    0.000000    0.000000    0.000000    
-16.294825    153.450806    -90.906761    3.465774    -5.794087    92.296379    -3.701445    1.567468    4.257630    -0.077660    -0.688287    1.401131    -2.331589    8.159192    -21.540451    17.282070    -1.502400    -19.690039    4.855253    6.669139    -13.240444    -32.403198    23.660212    -54.525742    -6.910456    -17.055737    -127.399437    -6.841582    -29.355034    -10.875938    0.150444    11.579962    -10.570518    49.755733    17.993931    6.810315    -14.568508    -6.320347    16.975931    -21.252195    -8.299102    22.001976    15.179131    -20.586912    -32.538105    -12.521746    39.568611    -33.308350    -1.257378    -25.025846    43.903721    0.000000    0.000000    0.000000    -21.730366    0.719332    -38.925140    6.624868    36.071239    -25.486216    19.367384    0.210979    -23.863234    0.000000    0.000000    0.000000    
-16.347204    153.453278    -90.937698    3.471869    -5.778572    92.248192    -3.697627    1.591855    4.229930    -0.082088    -0.690275    1.391661    -2.350913    8.155444    -21.554441    17.313118    -1.466460    -19.703976    4.860670    6.686199    -13.267894    -32.378963    23.673841    -54.533028    -6.892874    -17.133204    -127.379959    -6.807065    -29.392172    -10.868435    0.144957    11.583426    -10.552288    49.727242    18.070057    6.838229    -14.676526    -6.385962    17.087933    -21.237600    -8.323468    21.964481    15.172017    -20.575476    -32.510448    -12.539005    39.550552    -33.278519    -1.257098    -25.006994    43.895073    0.000000    0.000000    0.000000    -21.768841    0.690631    -38.905701    6.633211    36.077030    -25.489008    19.364449    0.229973    -23.841265    0.000000    0.000000    0.000000    
-16.402357    153.455780    -90.971146    3.469545    -5.766645    92.186409    -3.691026    1.606482    4.210792    -0.080152    -0.698103    1.385154    -2.368401    8.129538    -21.552803    17.313633    -1.399098    -19.710400    4.862239    6.717148    -13.291451    -32.356030    23.678177    -54.555138    -6.872829    -17.209700    -127.344254    -6.795356    -29.416084    -10.889913    0.140270    11.582558    -10.531632    49.687771    18.108892    6.866618    -14.768303    -6.411164    17.181196    -21.191536    -8.310779    21.951315    15.171700    -20.568472    -32.464035    -12.550664    39.535686    -33.254211    -1.265790    -25.002560    43.889381    0.000000    0.000000    0.000000    -21.805248    0.650935    -38.872375    6.654724    36.074593    -25.530279    19.349463    0.256905    -23.789354    0.000000    0.000000    0.000000    
